<?xml version="1.0" encoding="UTF-8" standalone="no"?>
<!-- Created with Inkscape (http://www.inkscape.org/) -->

<svg
   xmlns:dc="http://purl.org/dc/elements/1.1/"
   xmlns:cc="http://creativecommons.org/ns#"
   xmlns:rdf="http://www.w3.org/1999/02/22-rdf-syntax-ns#"
   xmlns:svg="http://www.w3.org/2000/svg"
   xmlns="http://www.w3.org/2000/svg"
   xmlns:sodipodi="http://sodipodi.sourceforge.net/DTD/sodipodi-0.dtd"
   xmlns:inkscape="http://www.inkscape.org/namespaces/inkscape"
   width="210mm"
   height="297mm"
   viewBox="0 0 744.09448819 1052.3622047"
   id="svg5031"
   version="1.1"
   inkscape:version="0.91 r13725"
   sodipodi:docname="dominating_process.svg">
  <defs
     id="defs5033">
    <clipPath
       id="clipPath4198"
       clipPathUnits="userSpaceOnUse">
      <path
         inkscape:connector-curvature="0"
         id="path4200"
         d="m 156.691,622.633 0,-111.36 179.041,0 0,111.36" />
    </clipPath>
    <filter
       style="color-interpolation-filters:sRGB;"
       inkscape:menu-tooltip="Fades hue progressively to white"
       inkscape:menu="Color"
       inkscape:label="Invert"
       id="filter5657">
      <feColorMatrix
         values="1 0 0 0 0 1 0 0 0 0 1 0 0 0 0 0 0 0 0 1 "
         type="matrix"
         result="r"
         in="SourceGraphic"
         id="feColorMatrix5659" />
      <feColorMatrix
         values="0 1 0 0 0 0 1 0 0 0 0 1 0 0 0 0 0 0 0 1 "
         type="matrix"
         result="g"
         in="SourceGraphic"
         id="feColorMatrix5661" />
      <feColorMatrix
         values="0 0 1 0 0 0 0 1 0 0 0 0 1 0 0 0 0 0 0 1 "
         type="matrix"
         result="b"
         in="SourceGraphic"
         id="feColorMatrix5663" />
      <feBlend
         result="minrg"
         in="r"
         mode="darken"
         in2="g"
         id="feBlend5665" />
      <feBlend
         result="p"
         in="minrg"
         mode="darken"
         in2="b"
         id="feBlend5667" />
      <feBlend
         result="maxrg"
         in="r"
         mode="lighten"
         in2="g"
         id="feBlend5669" />
      <feBlend
         result="q"
         in="maxrg"
         mode="lighten"
         in2="b"
         id="feBlend5671" />
      <feComponentTransfer
         result="q2"
         in="q"
         id="feComponentTransfer5673">
        <feFuncR
           slope="0"
           type="linear"
           id="feFuncR5675" />
      </feComponentTransfer>
      <feBlend
         result="pq"
         in="p"
         mode="lighten"
         in2="q2"
         id="feBlend5677" />
      <feColorMatrix
         values="-1 1 0 0 0 -1 1 0 0 0 -1 1 0 0 0 0 0 0 0 1 "
         type="matrix"
         result="qminp"
         in="pq"
         id="feColorMatrix5679" />
      <feComposite
         k3="1"
         operator="arithmetic"
         result="qminpc"
         in="qminp"
         in2="qminp"
         id="feComposite5681" />
      <feBlend
         result="result2"
         in2="SourceGraphic"
         mode="screen"
         id="feBlend5683" />
      <feComposite
         operator="in"
         in="result2"
         in2="SourceGraphic"
         result="fbSourceGraphic"
         id="feComposite5685" />
      <feColorMatrix
         result="fbSourceGraphicAlpha"
         in="fbSourceGraphic"
         values="0 0 0 -1 0 0 0 0 -1 0 0 0 0 -1 0 0 0 0 1 0"
         id="feColorMatrix5687" />
      <feColorMatrix
         id="feColorMatrix5689"
         type="hueRotate"
         values="180"
         result="color1"
         in="fbSourceGraphic" />
      <feColorMatrix
         id="feColorMatrix5691"
         values="1 0 0 0 0 0 1 0 0 0 0 0 1 0 0 -0.21 -0.72 -0.07 2 0 "
         result="fbSourceGraphic" />
      <feColorMatrix
         result="fbSourceGraphicAlpha"
         in="fbSourceGraphic"
         values="0 0 0 -1 0 0 0 0 -1 0 0 0 0 -1 0 0 0 0 1 0"
         id="feColorMatrix5703" />
      <feColorMatrix
         id="feColorMatrix5705"
         type="hueRotate"
         values="180"
         result="color1"
         in="fbSourceGraphic" />
      <feColorMatrix
         id="feColorMatrix5707"
         values="-1 0 0 0 1 0 -1 0 0 1 0 0 -1 0 1 -0.21 -0.72 -0.07 2 0 "
         result="color2" />
    </filter>
  </defs>
  <sodipodi:namedview
     id="base"
     pagecolor="#ffffff"
     bordercolor="#666666"
     borderopacity="1.0"
     inkscape:pageopacity="0.0"
     inkscape:pageshadow="2"
     inkscape:zoom="2.8"
     inkscape:cx="315.37611"
     inkscape:cy="802.14361"
     inkscape:document-units="px"
     inkscape:current-layer="layer1"
     showgrid="false"
     inkscape:window-width="1920"
     inkscape:window-height="1028"
     inkscape:window-x="-8"
     inkscape:window-y="-8"
     inkscape:window-maximized="1" />
  <metadata
     id="metadata5036">
    <rdf:RDF>
      <cc:Work
         rdf:about="">
        <dc:format>image/svg+xml</dc:format>
        <dc:type
           rdf:resource="http://purl.org/dc/dcmitype/StillImage" />
        <dc:title></dc:title>
      </cc:Work>
    </rdf:RDF>
  </metadata>
  <g
     inkscape:label="Ebene 1"
     inkscape:groupmode="layer"
     id="layer1">
    <path
       style="fill:#000000"
       d="m 473.91587,280.1121 c -0.15605,-0.13897 -31.9253,-0.44259 -63.83256,-0.61005 -17.5725,-0.0922 -34.8525,-0.21786 -38.4,-0.27917 -3.5475,-0.0613 -18.8025,-0.18816 -33.9,-0.28188 -38.86365,-0.24126 -70.96246,-0.54447 -77.4,-0.73114 l -1.35,-0.0392 0.085,-15.21014 c 0.0468,-8.36558 0.14696,-15.27207 0.22265,-15.34776 0.0757,-0.0757 0.15493,-12.56991 0.1761,-27.76496 0.0212,-15.19505 0.0654,-38.97459 0.0982,-52.84342 l 0.0597,-25.21608 0.24892,-0.40276 0.24892,-0.40276 11.43021,0.19457 c 27.07929,0.46093 57.23334,0.81004 80.28021,0.92944 13.6125,0.0705 36.09,0.22153 49.95,0.33559 l 25.2,0.20737 0.525,0.2709 0.525,0.27089 0.005,-0.38555 0.005,-0.38556 0.22624,0.35579 0.22624,0.35579 26.54417,0.12859 26.54416,0.12858 0.525,0.22272 0.525,0.22272 0,68.23558 0,68.23556 -4.34244,-0.0601 c -2.38834,-0.0331 -4.37959,-0.0932 -4.425,-0.13361 z m -13.72924,-2.24781 0.32443,-0.6062 -0.1829,-0.29593 c -0.25822,-0.41782 -1.86781,-1.21608 -2.64318,-1.31087 -0.35842,-0.0438 -1.16386,-0.30922 -1.78988,-0.58978 l -1.1382,-0.51011 -0.2868,0.17725 -0.28679,0.17725 0,1.60729 0,1.6073 0.375,0.15132 c 0.20625,0.0832 1.484,0.16197 2.83945,0.17499 l 2.46444,0.0237 0.32443,-0.6062 z m 4.0548,0.29306 0.19353,-0.31314 -0.33633,-0.40527 -0.33634,-0.40526 -1.07063,-0.12499 -1.07062,-0.12499 -0.15096,0.39339 c -0.083,0.21637 -0.0733,0.5959 0.0217,0.8434 l 0.17268,0.45 1.19171,0 1.19171,0 0.19353,-0.31314 z m -59.00457,-0.46809 0.68706,-0.48124 -0.0784,-1.69291 -0.0784,-1.69291 0.43707,-0.0842 0.43706,-0.0842 0.0928,1.87212 c 0.051,1.02967 0.15524,1.97318 0.23157,2.0967 0.0763,0.12351 0.60068,0.31122 1.1652,0.41712 l 1.0264,0.19256 0.91307,-0.40417 0.91308,-0.40417 0,-1.87676 0,-1.87677 0.45,0 0.45,0 0,1.91595 0,1.91595 0.9628,0.14131 c 0.52954,0.0777 1.30579,0.0489 1.725,-0.0641 l 0.7622,-0.20535 0,-1.85245 0,-1.85246 0.51068,6e-4 0.51069,6e-4 0.0893,1.875 0.0893,1.875 1.22072,0.0896 1.22072,0.0896 0.0722,-1.58253 c 0.0816,-1.78873 0.12941,-1.89027 0.77341,-1.64314 l 0.46294,0.17764 0.005,1.43442 c 0.002,0.78893 0.12067,1.61761 0.26255,1.84152 l 0.25795,0.4071 0.62703,-0.19901 0.62703,-0.19901 0.18618,-0.9924 c 0.10239,-0.54581 0.14083,-1.31445 0.0854,-1.70809 l -0.10075,-0.7158 0.675,-0.0959 0.675,-0.0959 0,1.63877 0,1.63877 0.47454,0.18209 c 0.26099,0.10016 0.66599,0.1821 0.9,0.1821 l 0.42546,0 0,-1.93229 0,-1.9323 0.31996,-0.19775 c 0.51889,-0.32069 0.65391,0.0397 0.69304,1.84975 l 0.037,1.71141 0.3889,0.13022 0.3889,0.13023 -0.026,-1.15464 c -0.0143,-0.63504 0.0434,-2.30213 0.12816,-3.70463 l 0.15412,-2.55 0.48856,0 0.48856,0 0.083,1.95 c 0.0456,1.0725 0.12579,2.42636 0.17814,3.00858 l 0.0952,1.05858 -0.24426,0.39521 -0.24425,0.39521 0.4105,0.40342 0.4105,0.40342 6.9409,0.21151 6.94091,0.21152 0.20653,-0.65071 c 0.11359,-0.3579 0.16533,-1.22133 0.11497,-1.91873 l -0.0916,-1.26801 0.43409,0 0.43409,0 -0.0857,1.39445 -0.0858,1.39446 0.32567,0.20127 0.32567,0.20128 -0.1726,0.27927 -0.17259,0.27927 4.5177,0 4.51771,0 0.0453,-0.825 c 0.0249,-0.45375 0.0587,-1.27852 0.075,-1.83282 l 0.0297,-1.00783 -0.79631,-0.56717 c -0.43797,-0.31195 -0.92769,-0.56718 -1.08827,-0.56718 -0.16057,0 -0.45281,-0.19382 -0.64941,-0.43072 -0.19661,-0.23689 -0.71939,-0.51025 -1.16174,-0.60747 l -0.80427,-0.17676 -1.31722,-1.04253 c -0.72447,-0.57338 -1.43892,-1.04252 -1.58766,-1.04252 -0.14874,0 -0.4335,-0.13404 -0.63278,-0.29788 -2.73521,-2.24858 -5.31234,-4.7428 -5.31234,-5.14143 0,-0.12114 -0.27,-0.30595 -0.6,-0.41069 l -0.6,-0.19043 -0.007,-0.35479 c -0.007,-0.36102 -1.02876,-1.72177 -2.40493,-3.2043 -0.41926,-0.45166 -1.09403,-1.44654 -1.49949,-2.21084 -0.40546,-0.7643 -0.83868,-1.38964 -0.96271,-1.38964 -0.12404,0 -0.22552,-0.13451 -0.22552,-0.29891 0,-0.16441 -0.675,-1.2449 -1.5,-2.40109 -0.825,-1.15619 -1.5,-2.27414 -1.5,-2.48433 0,-0.21019 -0.18269,-0.64846 -0.40597,-0.97392 -0.72025,-1.04984 -1.98705,-3.44175 -1.82282,-3.44175 0.0876,0 -0.18505,-0.45149 -0.60594,-1.00332 -0.4209,-0.55182 -0.76527,-1.08303 -0.76527,-1.18047 0,-0.0974 -0.11883,-0.48969 -0.26406,-0.87168 -0.14523,-0.38199 -0.28985,-0.82953 -0.32138,-0.99453 -0.0315,-0.165 -0.24114,-0.50312 -0.46582,-0.75139 -0.22467,-0.24826 -0.46429,-0.78826 -0.53249,-1.2 -0.15152,-0.91476 -0.50451,-1.81377 -0.92384,-2.35287 -0.17294,-0.22234 -0.35654,-0.68012 -0.408,-1.01729 -0.0514,-0.33716 -0.33973,-1.10024 -0.64062,-1.69574 -1.23871,-2.45157 -1.56461,-3.22617 -1.71776,-4.08271 -0.0885,-0.495 -0.37668,-1.23122 -0.64039,-1.63605 -0.26371,-0.40483 -0.51749,-1.1597 -0.56395,-1.67751 -0.0465,-0.5178 -0.41058,-1.67158 -0.80915,-2.56395 -0.75403,-1.68826 -2.04979,-5.63558 -2.22744,-6.78551 -0.0563,-0.36467 -0.36852,-1.49601 -0.69376,-2.51409 -0.32524,-1.01808 -0.59217,-2.06972 -0.59319,-2.33697 -9e-4,-0.26726 -0.18942,-0.84543 -0.41867,-1.28483 l -0.41683,-0.79892 -0.19604,-2.16943 -0.19603,-2.16944 -0.48178,-0.93165 c -0.26498,-0.51241 -0.46086,-0.9654 -0.43529,-1.00665 0.0256,-0.0412 0.0378,-0.10875 0.0271,-0.15 -0.0107,-0.0412 -0.0712,-0.93056 -0.1346,-1.97624 l -0.11521,-1.90124 -0.48397,-1.45709 -0.48397,-1.45709 -0.0169,-1.22086 -0.0169,-1.22086 -0.25148,-0.15541 -0.25147,-0.15543 0.16899,-0.44039 0.169,-0.44039 -0.2133,-0.525 c -0.11732,-0.28875 -0.26977,-1.2675 -0.33878,-2.175 -0.069,-0.9075 -0.20088,-1.8525 -0.29304,-2.1 -0.15776,-0.4237 -0.42387,-3.04695 -0.43987,-4.33617 -0.004,-0.3224 -0.12239,-0.7274 -0.26308,-0.9 l -0.25578,-0.31383 -0.16581,-2.55 c -0.18921,-2.90969 -0.37405,-4.2247 -0.88553,-6.3 -0.2145,-0.87033 -0.53446,-3.21346 -0.54199,-3.96909 -0.003,-0.2855 -0.12568,-0.59358 -0.27298,-0.68461 l -0.2678,-0.16552 0.16818,-0.43828 0.16818,-0.43828 -0.34951,-2.62711 c -0.19224,-1.44491 -0.48435,-3.32845 -0.64914,-4.18565 -0.16479,-0.85719 -0.34748,-2.13969 -0.40598,-2.85 -0.0585,-0.71031 -0.16978,-1.76397 -0.24729,-2.34147 -0.0775,-0.5775 -0.22195,-2.10563 -0.32097,-3.39585 -0.099,-1.29021 -0.26124,-2.47723 -0.36048,-2.63781 -0.0992,-0.16058 -0.24198,-1.06245 -0.31718,-2.00415 -0.15804,-1.97896 -0.23302,-2.44316 -0.49462,-3.06219 -0.10459,-0.2475 -0.23394,-1.05233 -0.28745,-1.78852 l -0.0973,-1.33852 -0.74134,-0.20658 c -0.40773,-0.11361 -1.70355,-0.22003 -2.8796,-0.23648 l -2.13826,-0.0299 -0.36078,0.43471 -0.36078,0.43471 0.0915,1.26779 0.0915,1.26779 -0.3675,0.1225 -0.36749,0.1225 -0.0345,-1 c -0.019,-0.55 -0.012,-1.22773 0.0157,-1.50607 l 0.0502,-0.50607 -0.59592,-0.31893 -0.59595,-0.31893 -3.61972,0 -3.61972,0 -0.0444,0.675 c -0.0244,0.37125 -0.0719,0.8775 -0.10558,1.125 -0.0336,0.2475 -0.0812,0.76365 -0.10558,1.147 l -0.0444,0.69699 -0.51484,-0.0991 -0.51484,-0.0992 0.0842,-1.37001 0.0842,-1.37001 -0.40744,-0.33814 -0.40743,-0.33814 -4.26197,-0.0775 -4.26198,-0.0775 0,-0.23717 0,-0.23717 -1.05407,0 -1.05407,0 -0.59593,0.37216 -0.59593,0.37217 -0.6,-0.37471 -0.6,-0.3747 0,0.30254 0,0.30254 -0.45,0 -0.45,0 -0.0181,0.375 c -0.01,0.20625 -0.002,1.7601 0.0167,3.45299 l 0.0348,3.07799 -0.47968,0.18407 c -0.26382,0.10124 -0.54507,0.11868 -0.625,0.0387 -0.0799,-0.0799 -0.19523,-1.34535 -0.25621,-2.81206 -0.12768,-3.07101 -0.25343,-3.79368 -0.68515,-3.93758 l -0.31014,-0.10338 -0.009,0.98711 c -0.005,0.54292 -0.0225,1.23327 -0.0386,1.53412 l -0.0293,0.54699 -0.49924,-0.097 -0.49924,-0.097 -0.0258,-1.5 -0.0258,-1.5 -1.5,0 -1.5,0 -0.0353,1.60773 -0.0352,1.60773 -0.26522,0.19227 c -0.2732,0.19805 -0.56442,0.78385 -1.46217,2.94121 l -0.51972,1.24894 0.1887,0.30533 0.18871,0.30533 -0.32535,0.20108 -0.32535,0.20107 0.15735,0.41005 0.15735,0.41004 -0.29179,0.18034 -0.29179,0.18034 0.18075,0.29246 0.18076,0.29247 -0.44997,0.68673 c -0.37448,0.57153 -0.80789,2.40419 -0.86009,3.63688 -0.007,0.165 -0.19922,0.56629 -0.42718,0.89175 -0.22796,0.32547 -0.41448,0.87386 -0.41448,1.21865 0,0.3448 -0.25921,1.16339 -0.57601,1.81911 -0.31681,0.65571 -0.63256,1.59233 -0.70166,2.08136 -0.11759,0.83205 -0.46803,1.87518 -1.10501,3.28914 -0.14866,0.33 -0.25837,0.83355 -0.24381,1.11899 0.0307,0.60105 -0.59583,2.82259 -1.02652,3.64 -0.16199,0.30745 -0.35923,0.84745 -0.4383,1.2 -0.25652,1.14373 -0.60106,2.15081 -0.99244,2.90086 -0.19635,0.37627 -0.67392,2.08546 -0.75166,2.69015 -0.0286,0.2227 -1.03674,2.43783 -1.50182,3.3 -0.22252,0.4125 -0.48124,1.23612 -0.57493,1.83027 -0.0937,0.59415 -0.42777,1.60665 -0.74237,2.25 -0.31461,0.64335 -0.88594,1.91223 -1.26962,2.81973 -0.38368,0.9075 -0.83267,1.83192 -0.99774,2.05426 -0.16508,0.22234 -0.34448,0.69484 -0.39868,1.05 -0.0542,0.35516 -0.39262,1.25324 -0.75205,1.99574 -0.35944,0.7425 -0.59191,1.35 -0.51662,1.35 0.0753,0 -0.14235,0.405 -0.48366,0.9 -0.58122,0.84295 -0.9451,1.58084 -1.96018,3.975 -0.22737,0.53625 -0.51543,0.975 -0.64015,0.975 -0.12473,0 -0.22677,0.20518 -0.22677,0.45596 0,0.25078 -0.3375,0.9906 -0.75,1.64404 -0.4125,0.65344 -0.75,1.32576 -0.75,1.49404 0,0.16828 -0.10205,0.30596 -0.22677,0.30596 -0.12472,0 -0.41592,0.43875 -0.64712,0.975 -0.23119,0.53625 -0.65431,1.3125 -0.94025,1.725 -0.28595,0.4125 -0.52792,0.885 -0.5377,1.05 -0.01,0.165 -0.3522,0.71909 -0.7609,1.23131 -0.40871,0.51221 -1.03872,1.56018 -1.40002,2.32882 -0.3613,0.76864 -0.77624,1.47127 -0.92208,1.5614 -0.14584,0.0901 -0.26516,0.3649 -0.26516,0.61059 0,0.24568 -0.4725,1.18534 -1.05,2.08811 -0.5775,0.90278 -1.05,1.71371 -1.05,1.80206 0,0.0883 -0.57375,0.98152 -1.275,1.98483 -0.70125,1.00331 -1.4775,2.12328 -1.725,2.48883 -1.3517,1.9964 -1.73564,2.54651 -2.82949,4.05405 -0.65847,0.9075 -2.1137,2.74654 -3.23386,4.08677 -1.12016,1.34022 -2.03665,2.58897 -2.03665,2.775 0,0.18603 -0.135,0.33823 -0.3,0.33823 -0.165,0 -0.3,0.14722 -0.3,0.32715 0,0.33124 -2.66032,3.63855 -3.075,3.82285 -0.12375,0.055 -0.225,0.28 -0.225,0.5 0,0.22 -0.10125,0.445 -0.225,0.5 -0.12375,0.055 -0.71529,0.7075 -1.31453,1.45 -1.2602,1.56147 -1.74812,2.06675 -4.8651,5.03819 -1.26246,1.20351 -2.29537,2.31725 -2.29537,2.475 0,0.15775 -0.12887,0.28681 -0.28637,0.28681 -0.1575,0 -0.61042,0.30375 -1.00649,0.675 -2.57779,2.41624 -3.57568,3.27524 -4.96073,4.2703 -0.85858,0.61682 -1.69751,1.37647 -1.86429,1.6881 -0.16678,0.31163 -0.47663,0.5666 -0.68858,0.5666 -0.21193,0 -0.6642,0.32072 -1.00504,0.71272 -0.34084,0.39199 -1.04018,0.9611 -1.5541,1.26468 -0.5139,0.30358 -0.93438,0.65786 -0.93438,0.78728 0,0.12943 -0.24647,0.23532 -0.54771,0.23532 l -0.5477,0 -0.70459,0.75 -0.70459,0.75 -0.5477,0 -0.54771,0 0,0.28363 c 0,0.156 -0.37125,0.48637 -0.825,0.73417 -1.54619,0.84438 -3.93593,1.98218 -4.18078,1.99055 -0.13432,0.005 -0.77452,0.40959 -1.42266,0.9 l -1.17844,0.89165 -0.52886,0 c -0.29087,0 -0.60507,0.12332 -0.69822,0.27404 -0.25274,0.40895 -2.51245,1.39942 -4.21604,1.84797 -0.825,0.21722 -1.8375,0.5703 -2.25,0.78462 l -0.75,0.38967 -1.23827,0.002 -1.23826,0.002 -0.34725,0.41841 -0.34724,0.4184 -0.96449,0.16369 c -1.21869,0.20682 -4.76649,1.20024 -5.16449,1.4461 -0.165,0.10193 -1.3125,0.28301 -2.55,0.40241 l -2.25,0.21709 -0.98823,0.40717 -0.98823,0.40717 -2.68569,0.20275 -2.68569,0.20274 -0.32155,0.38744 -0.32155,0.38744 0.0955,0.9946 0.0955,0.99469 7.65,0 7.65,0 0.0272,-1.4372 0.0272,-1.4372 0.3478,-0.3478 0.3478,-0.3478 0.30414,0.30414 0.30414,0.30414 0.0351,1.56001 0.0352,1.56 0.63571,0.15756 c 0.34964,0.0867 2.32321,0.11855 4.38571,0.0709 l 3.75,-0.0867 0.0429,-1.57488 c 0.0236,-0.86618 0.12489,-1.78866 0.22515,-2.04995 l 0.18231,-0.47507 0.36012,0.12005 0.36013,0.12004 -0.0834,1.57132 -0.0834,1.57131 0.35985,0.43359 0.35985,0.43359 2.64184,0 2.64183,0 0.49147,-0.49147 0.49147,-0.49147 -0.0803,-1.51343 -0.0803,-1.51344 0.31646,-0.10549 0.31646,-0.10548 0.19189,1.83591 c 0.10554,1.00975 0.26823,1.95943 0.36153,2.11039 l 0.16964,0.27448 1.92174,0 1.92174,0 0.29317,-0.5478 0.29318,-0.5478 -0.0576,-1.4772 -0.0576,-1.4772 0.45,0 0.45,0 -0.0899,0.41976 c -0.0495,0.23087 0.004,0.63587 0.1196,0.9 0.11524,0.26413 0.17886,0.79114 0.14137,1.17113 l -0.0682,0.69088 0.36028,0.43412 0.36029,0.43411 0.99305,0 0.99305,0 0.19248,-0.60645 c 0.10586,-0.33354 0.16994,-1.17729 0.14239,-1.875 -0.0275,-0.6977 -0.0376,-1.44855 -0.0223,-1.66855 l 0.0278,-0.4 0.375,0.12523 0.375,0.12524 -0.10221,0.99364 -0.10221,0.99364 0.3,0.63112 c 0.16501,0.34712 0.37899,0.87642 0.47551,1.17622 l 0.1755,0.54509 0.8267,-0.0951 0.82672,-0.0951 0.0886,-2.19548 0.0885,-2.19548 0.36145,0.11899 0.36144,0.119 0.15,2.07648 0.15,2.07649 0.86745,0.099 0.86745,0.099 0.26354,-0.39903 0.26355,-0.39902 -0.0633,-1.63091 -0.0633,-1.63091 0.35727,-0.11909 0.35727,-0.11909 0.0208,0.4 c 0.0114,0.22 0.0452,1.1425 0.075,2.05 l 0.0542,1.65 1.2,0 1.2,0 0.15,-1.95 0.15,-1.95 0.3,0 0.3,0 0.2723,2.025 c 0.14976,1.11375 0.37026,2.025 0.49001,2.025 0.40116,0 0.54461,-1.22683 0.49954,-4.27211 l -0.0447,-3.02329 0.50205,-0.31669 c 0.27613,-0.17418 0.57687,-0.24188 0.6683,-0.15044 0.0914,0.0914 0.17426,1.79871 0.18404,3.79396 l 0.0178,3.62772 0.39228,0.32556 0.39229,0.32557 7.76306,-0.0801 7.76308,-0.0801 0.0893,-1.875 0.0893,-1.875 0.57198,0 0.57198,0 0.0887,2.025 0.0887,2.025 4.2,0 4.2,0 0.0821,-1.95 c 0.0452,-1.0725 0.15607,-2.1525 0.24643,-2.4 l 0.16428,-0.45 0.37669,0.51138 0.37668,0.51137 0.0696,1.72097 c 0.0383,0.94653 0.13711,1.83016 0.21959,1.96362 l 0.14997,0.24266 2.69171,0 2.69171,0 0.14592,-0.38027 c 0.0803,-0.20915 0.17727,-1.1879 0.21559,-2.175 l 0.0697,-1.79473 0.45,0 0.45,0 0.15,2.1 0.15,2.1 2.1,0 2.1,0 0.0474,-0.9 c 0.0261,-0.495 0.0598,-1.47375 0.075,-2.175 l 0.0276,-1.275 0.45,0 0.45,0 0,2.25 0,2.25 1.79429,0 1.79428,0 0.19279,-0.76812 c 0.10603,-0.42247 0.12375,-1.28277 0.0394,-1.91178 l -0.15339,-1.14366 0.26632,-0.41322 0.26633,-0.41322 0.29541,0.45 0.2954,0.45 0.005,1.875 0.005,1.875 1.09193,0 1.09192,0 0.39854,-0.525 0.39853,-0.525 0.01,-0.765 0.01,-0.765 -0.36,-0.36 -0.36,-0.36 0.37249,-0.37249 0.37249,-0.37249 0.26784,0.43336 0.26783,0.43336 -0.16562,0.82809 c -0.0911,0.45545 -0.0797,1.17056 0.0254,1.58913 l 0.19103,0.76104 0.89429,0 0.89428,0 0,-1.95 0,-1.95 0.45,0 0.45,0 0,1.0125 c 0,0.55687 0.0858,1.44143 0.19064,1.96569 l 0.19064,0.95318 1.08436,-0.0907 1.08436,-0.0907 0.0332,-1.95 0.0332,-1.95 0.41684,0 0.41683,0 0.15,1.85033 c 0.0825,1.01768 0.23335,1.93354 0.33523,2.03523 l 0.18523,0.1849 0.14367,-2.03523 c 0.079,-1.11938 0.1237,-2.91273 0.0993,-3.98523 l -0.0444,-1.95 0.31548,-0.22041 c 0.17351,-0.12122 0.40627,-0.22247 0.51724,-0.225 l 0.20175,-0.005 0.0983,4.02587 c 0.054,2.21423 0.18918,4.11641 0.30032,4.22708 l 0.20207,0.20121 7.14793,0.001 c 3.93136,6e-4 7.31667,-0.0115 7.52292,-0.0271 l 0.375,-0.0283 0,-2.0679 0,-2.06791 0.42067,-0.16142 c 0.66139,-0.2538 0.77933,0.0647 0.77933,2.10466 l 0,1.90742 0.76953,0.29258 0.76953,0.29257 2.65593,0 c 1.46077,0 2.86948,-0.0819 3.13047,-0.1821 l 0.47454,-0.18209 0,-0.7581 c 0,-0.9701 0.62686,-3.07771 0.91539,-3.07771 0.37242,0 0.58461,0.88 0.58461,2.42454 l 0,1.47546 0.375,0.0181 c 1.25757,0.0606 3.37437,0.3313 3.48927,0.4462 0.2817,0.28169 1.12681,0.1185 1.78928,-0.34551 z m 70.24645,-1.46877 c 0.25157,-0.66166 0.97571,-1.10769 0.85237,-0.525 -0.0262,0.12375 0.0557,0.46125 0.1821,0.75 l 0.22972,0.525 0.58351,0 0.58351,0 0.3185,-0.91363 0.31849,-0.91364 0.33439,0.11147 0.33439,0.11146 0.007,0.72717 0.007,0.72717 0.9,0 0.9,0 0.0548,-5.475 0.0548,-5.475 -0.95478,-0.0223 c -1.34254,-0.0314 -2.3965,-0.24942 -2.70723,-0.56015 l -0.26528,-0.26528 0.20157,-0.32614 0.20156,-0.32614 1.7823,0 1.78229,0 0,-6.00742 0,-6.00743 -0.81729,-0.31073 -0.81729,-0.31073 -2.32172,0.0791 -2.32172,0.0791 -0.22538,-0.22538 -0.22537,-0.22538 0.32049,-0.5106 0.32049,-0.51062 2.57539,-0.15649 2.57539,-0.15649 0.23383,-0.23383 0.23382,-0.23383 0.0429,-5.45968 0.0429,-5.45968 -0.29494,-0.375 -0.29494,-0.375 -1.61327,0 -1.61327,0 0,-0.75 0,-0.75 0.275,0 c 0.15125,0 0.3318,0.16875 0.40122,0.375 l 0.12621,0.375 0.42499,-0.35049 c 0.23375,-0.19276 0.89695,-0.39527 1.47379,-0.45 l 1.04879,-0.0995 0.029,-0.45 c 0.016,-0.2475 0.12107,-0.65871 0.23361,-0.9138 l 0.20461,-0.46379 -0.0836,-4.33621 -0.0836,-4.3362 -3.04681,-0.0852 -3.04681,-0.0852 -0.18337,-0.47784 -0.18336,-0.47784 0.34191,-0.41198 0.34191,-0.41197 2.60326,0 2.60327,0 0.36,-0.36 0.36,-0.36 0,-5.60327 0,-5.60326 -0.43499,-0.36101 -0.435,-0.36102 -0.99432,0.0857 c -0.54688,0.0471 -1.16769,-0.0215 -1.37958,-0.15243 l -0.38525,-0.2381 0.35131,-0.42329 0.3513,-0.42329 1.42609,0 1.42609,0 0.012,-5.1 0.012,-5.1 -0.57486,-0.0375 c -0.95239,-0.0621 -1.11519,-0.10283 -1.34985,-0.3375 l -0.225,-0.225 -2.222,0 -2.222,0 0.1002,-0.525 0.10019,-0.525 3.1468,-0.15 3.1468,-0.15 0.0567,-5.99662 0.0567,-5.99663 -0.47817,-0.52837 -0.47818,-0.52838 -1.15162,0 -1.15162,0 0.10138,-0.675 0.10139,-0.675 1.47173,-0.15 1.47173,-0.15 0.0831,-4.62994 0.0831,-4.62995 -0.47219,-0.99505 -0.47218,-0.99506 -1.33593,0 -1.33593,0 0,-0.3 0,-0.3 -0.45,0 -0.45,0 0,0.3 0,0.3 -0.59428,0 -0.59429,0 -0.18395,-0.73295 -0.18396,-0.73295 0.19594,-0.31705 0.19596,-0.31705 2.5323,0 2.53229,0 0.0105,-0.525 c 0.006,-0.28875 0.0395,-2.69729 0.075,-5.35232 l 0.0645,-4.82731 -0.4332,-0.52355 -0.43319,-0.52355 -0.84181,0.16836 -0.8418,0.16836 0,-0.7104 0,-0.71041 0.47454,-0.18209 c 0.26099,-0.10016 0.80403,-0.1821 1.20676,-0.1821 l 0.73222,0 -0.0302,-4.67239 -0.0302,-4.6724 -0.30594,-0.8776 -0.30594,-0.87761 -0.42065,0 -0.42065,0 -0.005,1.425 c -0.002,0.78375 -0.12065,1.60816 -0.2625,1.83203 l -0.25791,0.40703 -0.23346,-0.37775 -0.23346,-0.37775 0.051,-1.44103 0.051,-1.44102 -0.5656,-0.3027 -0.5656,-0.3027 -0.18944,0.18945 c -0.1042,0.10419 -0.18945,0.90944 -0.18945,1.78944 l 0,1.6 -0.43229,0 c -0.61235,0 -0.84729,-0.49949 -0.88495,-1.88148 l -0.0328,-1.20208 -0.53354,-0.33322 -0.53354,-0.33322 -0.30474,0.45 -0.30473,0.45 0.11745,1.40644 0.11746,1.40643 -0.25967,0.39357 -0.25967,0.39356 -0.33858,-0.57712 -0.33859,-0.57711 -0.0309,-1.52289 -0.0309,-1.52288 -1.275,-0.0922 -1.275,-0.0923 0,1.81725 0,1.81725 -0.28229,0 c -0.49528,0 -0.73791,-0.69974 -0.65255,-1.88193 l 0.0829,-1.14865 -0.36078,-0.43471 -0.36078,-0.43471 -1.27653,0 -1.27653,0 -0.34269,0.41291 -0.34269,0.41291 0.11355,1.36301 0.11354,1.363 -0.24128,0.3904 -0.24128,0.39039 -0.22607,-0.22607 -0.22607,-0.22607 0.0812,-1.31995 0.0812,-1.31996 -0.34001,-0.63532 -0.34001,-0.63532 -1.5564,0.09 -1.5564,0.09 -0.15,1.62671 -0.15,1.6267 -0.375,0.1233 -0.375,0.12329 -0.0291,-0.4 c -0.016,-0.22 -0.0155,-0.8725 0.001,-1.45 l 0.0301,-1.05 -0.42104,-0.54133 -0.42103,-0.54134 -2.33855,0.1649 -2.33854,0.16489 -0.27097,0.27097 -0.27097,0.27097 0.10453,1.68088 0.10453,1.68088 -0.47304,-4.2e-4 -0.47304,-4.2e-4 0.12687,-0.86448 0.12688,-0.86447 -0.32883,-0.20323 -0.32884,-0.20321 0,-0.8823 0,-0.88229 -4.8,0 -4.8,0 -0.0349,0.525 c -0.0192,0.28875 -0.0529,1.065 -0.075,1.725 l -0.0401,1.2 -0.3,0.15 -0.3,0.15 -0.0883,-1.83725 -0.0883,-1.83725 -6.56556,-0.2185 -6.56555,-0.2185 -0.33265,0.20558 -0.33264,0.20559 0.0865,3.50016 0.0865,3.50017 -0.675,0.0959 -0.675,0.0959 -0.0457,-3.09586 c -0.0595,-4.03372 -0.0557,-3.99587 -0.40471,-3.99587 l -0.2996,0 -0.0907,1.575 -0.0907,1.575 -0.44373,0 -0.44374,0 -0.18996,-0.49503 c -0.10448,-0.27226 -0.20149,-1.04851 -0.21558,-1.725 l -0.0256,-1.22997 -0.6,0 -0.6,0 -0.09,1.725 -0.09,1.725 -0.58503,0 -0.58503,0 -0.0244,-0.675 c -0.0634,-1.75445 -0.17101,-2.34038 -0.48834,-2.65771 l -0.34336,-0.34336 -0.75197,0.18873 -0.75197,0.18873 -0.20156,0.63505 -0.20155,0.63506 0.38699,0.7231 0.387,0.72311 -0.51628,0.51614 -0.51629,0.51615 -0.26139,-0.42279 -0.2614,-0.4228 0.15521,-0.40446 c 0.0854,-0.22246 0.0695,-0.86157 -0.0353,-1.42025 l -0.19056,-1.01578 -1.10316,-0.20695 -1.10315,-0.20695 -0.38463,0.52602 -0.38464,0.52602 0.18373,1.14897 0.18373,1.14897 -0.2997,0 -0.29969,0 -0.19505,-1.47036 -0.19505,-1.47036 -0.46813,-0.17964 c -0.25749,-0.0988 -0.99711,-0.17964 -1.64362,-0.17964 l -1.17546,0 0,1.67087 0,1.67086 -0.66608,-0.0959 -0.66608,-0.0959 0.0874,-1.40304 0.0874,-1.40304 -0.5463,-0.28013 -0.54631,-0.28012 -1.125,0.14098 -1.125,0.14099 0,2.01718 c 0,1.10945 0.0738,2.091 0.16404,2.18122 0.15387,0.15387 0.53316,5.10524 0.48709,6.35879 -0.0116,0.31505 0.10668,0.81148 0.26278,1.10316 0.26787,0.50052 0.47051,2.08706 0.70555,5.52401 0.0564,0.825 0.13611,1.5675 0.17709,1.65 0.041,0.0825 0.0553,0.26105 0.0317,0.39678 -0.0516,0.29731 0.58304,3.7683 0.80502,4.40323 0.28604,0.81814 0.35809,1.33433 0.39777,2.85 l 0.0393,1.5 0.27123,0.33844 0.27123,0.33845 0.0259,1.8388 0.0259,1.8388 0.24673,0.15248 c 0.13569,0.0839 0.33345,0.92661 0.43946,1.87276 0.10601,0.94615 0.25891,1.92208 0.33978,2.16874 0.0809,0.24666 0.20308,1.52916 0.2716,2.85 0.0685,1.32084 0.26513,3.27903 0.43695,4.35153 0.56741,3.54197 0.6193,4.03586 0.59359,5.64949 l -0.0255,1.59949 0.3314,0.39932 c 0.29572,0.35631 0.56822,1.95039 0.61334,3.58787 0.009,0.3224 0.16136,0.76115 0.33884,0.975 0.17749,0.21386 0.24201,0.38883 0.14339,0.38883 -0.0986,0 -0.0365,0.37125 0.13815,0.825 0.32458,0.84352 0.62172,2.93204 0.60821,4.275 -0.007,0.6996 0.2572,1.51817 0.89449,2.77093 0.14574,0.28651 0.26499,0.85147 0.26499,1.25547 0,0.404 0.15097,1.11458 0.33549,1.57907 0.18452,0.46449 0.38294,1.30972 0.44093,1.8783 0.058,0.56857 0.2541,1.74982 0.43579,2.625 l 0.33031,1.59123 0.24699,0 0.247,0 -0.003,0.675 c -0.004,0.98017 0.29248,2.12371 1.09344,4.22102 0.38941,1.01969 0.93763,2.63023 1.21824,3.57898 0.28062,0.94875 0.60321,1.725 0.71686,1.725 0.11366,0 0.23509,0.37125 0.26986,0.825 0.0348,0.45375 0.31714,1.365 0.62752,2.025 0.70568,1.50064 1.32907,2.93029 1.40622,3.225 0.0324,0.12375 0.0927,0.2925 0.13391,0.375 0.0412,0.0825 0.10289,0.25125 0.13696,0.375 0.41968,1.52403 0.56367,1.875 0.7692,1.875 0.13261,0 0.33222,0.53929 0.44358,1.19843 0.11136,0.65913 0.33405,1.27975 0.49487,1.37914 0.29781,0.18405 0.8781,1.42216 1.03336,2.20478 0.26746,1.34816 0.52413,2.01842 1.06241,2.77435 0.33026,0.46382 0.50286,0.8433 0.38356,0.8433 -0.11931,0 -0.0272,0.23625 0.20457,0.525 0.46911,0.5843 0.88072,1.28918 2.05201,3.51401 0.43751,0.83105 0.97936,1.84849 1.2041,2.26099 0.22475,0.4125 0.48891,0.90072 0.58701,1.08493 0.50914,0.95602 3.5862,5.26396 4.72345,6.61292 0.71771,0.85131 1.30492,1.64183 1.30492,1.75669 0,0.33399 2.9555,3.9453 4.25895,5.20399 2.25047,2.17308 4.31131,3.64147 5.11081,3.64147 l 0.53036,0 0,0.3 0,0.3 0.61592,0 0.61591,0 1.10373,0.75 c 0.60704,0.4125 1.32585,0.75 1.59735,0.75 0.27149,0 0.66168,0.2025 0.86709,0.45 l 0.37347,0.45 0.82653,0 0.82653,0 0.37347,0.45 0.37347,0.45 0.82653,0 0.82653,0 0.33305,0.4013 0.33304,0.40129 2.17869,0.37795 c 1.19828,0.20787 2.55683,0.56038 3.019,0.78335 l 0.84031,0.4054 0.16679,-0.43465 0.16678,-0.43464 0.42732,0 0.42732,0 0.17268,0.45 0.17268,0.45 0.57198,0 c 0.31458,0 0.84061,0.16777 1.16894,0.37281 l 0.59696,0.37281 0.52397,-0.33153 0.52396,-0.33153 3e-4,-0.56628 3e-4,-0.56628 0.44393,0 0.44394,0 0.006,0.75 0.006,0.75 1.14303,0.28232 1.14303,0.28231 0.72118,-0.88232 0.72118,-0.88231 0.0108,0.8 0.0108,0.8 0.375,0.15132 c 0.68759,0.27745 0.83791,0.20378 1.125,-0.55132 z m -213.45,-4.35 0.18541,-0.3 1.898,0 1.89801,0 0.85929,-0.44815 0.85929,-0.44815 1.25729,-0.002 1.2573,-0.002 0.18541,-0.3 0.18541,-0.3 1.3073,0 1.30729,0 0.1,-0.29706 0.1,-0.29706 1.875,-0.19568 1.875,-0.19567 0,-0.25727 0,-0.25726 1.33229,0 1.3323,0 0.16217,-0.26239 0.16216,-0.26239 1.71542,-0.14226 1.71543,-0.14226 0.11511,-0.34535 0.11512,-0.34535 0.815,0 c 0.44825,0 0.94325,-0.11869 1.1,-0.26376 0.15675,-0.14507 0.825,-0.43579 1.485,-0.64606 0.66,-0.21026 1.70357,-0.69907 2.31904,-1.08624 0.61547,-0.38716 1.31386,-0.70394 1.55198,-0.70394 0.23812,0 0.83404,-0.3375 1.32427,-0.75 0.49023,-0.4125 1.02964,-0.75 1.19871,-0.75 0.41037,0 2.27957,-0.99053 2.406,-1.275 0.055,-0.12375 0.33783,-0.225 0.62851,-0.225 l 0.5285,0 0.57149,-0.63443 c 0.31433,-0.34893 0.8415,-0.75623 1.1715,-0.9051 1.08061,-0.48748 3.38266,-1.89934 3.97106,-2.43547 0.3169,-0.28875 0.70391,-0.525 0.86001,-0.525 0.15611,0 0.85551,-0.6075 1.55423,-1.35 0.69872,-0.7425 1.38319,-1.35 1.52105,-1.35 0.13786,0 0.50783,-0.28821 0.82215,-0.64046 0.31433,-0.35225 1.5165,-1.39546 2.6715,-2.31823 2.13976,-1.70954 10.95,-10.46003 10.95,-10.87574 0,-0.1257 0.41714,-0.67562 0.92699,-1.22205 0.50984,-0.54644 1.14785,-1.33102 1.4178,-1.74352 0.26994,-0.4125 0.6628,-0.85796 0.87301,-0.98991 0.21021,-0.13195 0.3822,-0.40322 0.3822,-0.60283 0,-0.19961 0.27,-0.53155 0.6,-0.73764 0.33,-0.20609 0.6,-0.52841 0.6,-0.71626 0,-0.18786 0.4725,-0.91819 1.05,-1.62295 0.5775,-0.70476 1.05,-1.35296 1.05,-1.44044 0,-0.0875 0.35101,-0.53726 0.78002,-0.99951 0.42901,-0.46226 1.38153,-1.65046 2.11671,-2.64046 0.73519,-0.99 1.53168,-2.03779 1.76999,-2.32843 0.2383,-0.29064 0.43328,-0.66612 0.43328,-0.83442 0,-0.16829 0.20173,-0.38339 0.44828,-0.478 l 0.44827,-0.17202 -0.15317,-0.24784 c -0.0842,-0.13631 -0.0271,-0.32576 0.12705,-0.42101 0.32069,-0.1982 2.72957,-3.67162 2.72957,-3.93584 0,-0.0959 0.37125,-0.74088 0.825,-1.43334 1.34306,-2.0496 1.57014,-2.42608 1.74856,-2.8991 0.0933,-0.2475 0.29095,-0.6525 0.4391,-0.9 0.14816,-0.2475 0.76645,-1.42875 1.37398,-2.625 0.60753,-1.19625 1.21908,-2.175 1.35898,-2.175 0.13991,0 0.25438,-0.2025 0.25438,-0.45 0,-0.2475 0.12428,-0.45 0.27616,-0.45 l 0.27617,0 0.19691,-0.89656 c 0.10831,-0.49311 0.33271,-0.98048 0.49867,-1.08305 0.16596,-0.10257 0.55887,-0.74537 0.87313,-1.42844 0.56039,-1.21803 0.79725,-1.63158 1.85396,-3.23697 0.28875,-0.43868 0.525,-0.95842 0.525,-1.15498 0,-0.19656 0.26332,-0.72717 0.58515,-1.17914 0.32183,-0.45197 0.65048,-1.18204 0.73032,-1.62237 0.0799,-0.44034 0.4367,-1.21 0.79299,-1.71037 0.35629,-0.50037 0.68153,-1.07364 0.72276,-1.27394 0.22635,-1.09978 0.59424,-2.10081 1.24316,-3.38259 0.39909,-0.7883 0.72562,-1.66915 0.72562,-1.95743 0,-0.28829 0.14235,-0.57161 0.31634,-0.62961 0.17398,-0.058 0.34767,-0.31897 0.38597,-0.57995 0.0383,-0.26097 0.29122,-0.81266 0.56203,-1.22596 0.2708,-0.41331 0.5422,-1.14233 0.6031,-1.62006 0.0609,-0.47772 0.32169,-1.27358 0.57954,-1.76858 0.25785,-0.495 0.56318,-1.305 0.67852,-1.8 0.11534,-0.495 0.45552,-1.44 0.75595,-2.1 0.82057,-1.80263 1.03268,-2.38193 1.3456,-3.675 0.0699,-0.28875 0.15425,-0.55875 0.1875,-0.6 0.0333,-0.0412 0.0859,-0.17625 0.11693,-0.3 0.0311,-0.12375 0.3517,-1.15047 0.7125,-2.2816 0.36081,-1.13113 0.65602,-2.29585 0.65602,-2.58827 0,-0.29241 0.19343,-0.6922 0.42985,-0.88841 l 0.42984,-0.35674 -0.0246,-0.50499 c -0.0135,-0.27774 0.21055,-1.29125 0.49791,-2.25224 0.28736,-0.96098 0.44647,-1.82324 0.35358,-1.91614 -0.0929,-0.0929 0.0943,-0.5385 0.41596,-0.99024 l 0.58484,-0.82134 0.19132,-1.57073 c 0.10522,-0.86391 0.37722,-1.92704 0.60444,-2.36252 0.22723,-0.43549 0.4148,-0.99429 0.41683,-1.24179 0.002,-0.2475 0.19147,-0.80989 0.42096,-1.24976 0.2295,-0.43987 0.49475,-1.31737 0.58945,-1.95 0.0947,-0.63263 0.24417,-1.61656 0.33216,-2.18652 0.088,-0.56995 0.29441,-1.1707 0.45871,-1.335 l 0.29872,-0.29872 0,-1.23 0,-1.23 -0.3478,-0.3478 -0.3478,-0.3478 -0.0272,-1.4372 -0.0272,-1.4372 -1.125,-0.0931 -1.125,-0.0931 0,1.81811 0,1.81811 -0.43229,0 c -0.65743,0 -0.88294,-0.58106 -0.80885,-2.08411 l 0.0673,-1.36589 -0.83603,-0.38119 -0.83603,-0.3812 -0.10206,0.3062 -0.10207,0.30619 -0.725,0 -0.725,0 0,1.63229 0,1.6323 -0.32614,0.20157 -0.32614,0.20156 -0.33731,-0.33731 -0.33732,-0.33732 0.0816,-1.12975 0.0816,-1.12975 -0.57831,-0.6668 -0.57831,-0.66679 -1.20308,0 -1.20307,0 -0.36101,0.43499 -0.36102,0.43499 0.0547,0.99001 c 0.0301,0.54451 0.0241,1.09126 -0.0132,1.21501 -0.0374,0.12375 -0.0848,0.39375 -0.1054,0.6 l -0.0375,0.375 -0.45,0 -0.45,0 -0.093,-1.64091 -0.093,-1.6409 -0.31876,-0.3841 -0.31877,-0.38409 -2.49305,0 -2.49305,0 -0.14157,0.525 c -0.0779,0.28875 -0.15061,1.03789 -0.16164,1.66476 -0.0233,1.32356 -0.20529,1.71024 -0.80493,1.71024 l -0.43229,0 -0.023,-0.525 c -0.0127,-0.28875 -0.0464,-1.1325 -0.075,-1.875 l -0.052,-1.35 -3.9,0 -3.9,0 -0.15,1.95 c -0.0825,1.0725 -0.27049,2.13699 -0.41775,2.36553 l -0.26776,0.41553 -0.36531,-0.68259 -0.36531,-0.68259 0.30514,-0.8084 0.30514,-0.8084 -0.42031,-0.94954 -0.42031,-0.94954 -5.85176,-0.0533 c -3.21847,-0.0293 -6.70326,-0.0822 -7.74397,-0.11741 -1.04072,-0.0353 -2.16394,0.007 -2.49606,0.0938 l -0.60386,0.15791 0.0725,3.61667 0.0725,3.61666 -0.48706,0.30723 -0.48706,0.30723 -0.20048,-0.20048 -0.20047,-0.20047 0.0504,-3.15684 0.0504,-3.15683 -0.3249,-0.60708 c -0.1787,-0.3339 -0.45515,-0.60708 -0.61434,-0.60708 l -0.28945,0 0,2.12087 0,2.12086 -0.65938,-0.0959 -0.65937,-0.0959 0.0792,-1.68373 0.0792,-1.68374 -0.49127,-0.49126 c -0.54277,-0.54277 -0.99756,-0.60947 -1.59071,-0.23328 l -0.3923,0.24881 0.0666,1.64552 0.0666,1.64553 -0.21697,0.35107 c -0.11934,0.1931 -0.4056,0.35108 -0.63613,0.35108 l -0.41915,0 -0.0881,-2.175 -0.0881,-2.175 -0.75,0 -0.75,0 -0.0353,2.08676 -0.0353,2.08677 -0.31222,0.10407 c -0.17172,0.0572 -0.41553,-0.0631 -0.54181,-0.26742 l -0.22959,-0.37149 0.0714,-1.54159 0.0714,-1.54159 -0.44971,-0.37322 -0.4497,-0.37323 -0.9946,0.0955 -0.9946,0.0955 -0.09,1.725 -0.09,1.725 -0.51003,5.4e-4 -0.51003,5.4e-4 0,-1.72555 0,-1.72553 -1.41027,-0.0908 -1.41028,-0.0908 -0.0897,1.89083 -0.0897,1.89084 -0.44894,0 -0.44894,0 0.0943,-1.0947 0.0943,-1.0947 -0.32037,-0.19801 c -0.17621,-0.1089 -0.32038,-0.46003 -0.32038,-0.7803 l 0,-0.58229 -2.075,0 -2.075,0 -0.13486,0.375 c -0.0742,0.20625 -0.0722,0.78626 0.004,1.28892 l 0.1392,0.91391 -0.45263,0.37565 -0.45263,0.37566 -0.19157,-0.30996 c -0.10536,-0.17048 -0.28987,-0.88579 -0.41001,-1.58957 l -0.21845,-1.27961 -2.8417,0 -2.8417,0 -0.15,1.47674 -0.15,1.47673 -0.35864,0.11781 -0.35865,0.11782 -0.0913,-1.59455 -0.0914,-1.59455 -1.425,-0.0914 -1.425,-0.0914 0,-0.3203 0,-0.3203 -0.42329,0.3513 -0.42329,0.3513 -0.19442,-0.31456 -0.19441,-0.31457 -0.71459,0 -0.71459,0 -0.19441,0.31457 -0.19442,0.31456 -0.37052,-0.3075 -0.37052,-0.3075 -0.70575,0.13591 c -1.01499,0.19547 -1.15301,0.42609 -1.25679,2.09996 l -0.093,1.5 -0.59412,0 -0.59411,0 0.0938,-1.29911 0.0938,-1.2991 -0.52118,-0.5759 -0.52117,-0.57589 -3.49351,0 -3.4935,0 -0.36,0.36 -0.36,0.36 -0.36,-0.36 -0.36,-0.36 -0.93,0 c -0.5115,0 -1.05825,0.12759 -1.215,0.28353 l -0.285,0.28353 -1.8,0.0915 -1.8,0.0915 0,5.55 0,5.55 1.575,0.0907 1.575,0.0907 0,0.58432 0,0.58432 -1.17546,0 c -0.64651,0 -1.38901,0.0819 -1.65,0.1821 l -0.47454,0.18209 0,5.60791 0,5.60791 0.36,0.36 0.36,0.36 1.87229,0 1.8723,0 0.18541,-0.3 0.18541,-0.3 0.84731,0 0.8473,0 0.1706,0.65236 0.17059,0.65236 -0.24919,0.44529 -0.2492,0.44528 -3.11141,0.0274 -3.11141,0.0273 0,5.85 0,5.85 1.89505,0.0898 1.89506,0.0898 -0.11876,0.36017 -0.11875,0.36016 -1.71457,0.0904 -1.71457,0.0904 -0.28673,0.75417 -0.28673,0.75416 0.003,4.40547 c 0.002,2.42301 0.0864,4.90804 0.18793,5.52229 l 0.18462,1.11682 0.61809,0.19617 c 0.33995,0.1079 1.77228,0.23322 3.18295,0.27848 l 2.56486,0.0823 0.29352,0.46532 0.29351,0.46531 -0.229,0.229 -0.22899,0.22899 -1.56039,-0.0766 c -0.85822,-0.0421 -2.33665,0.01 -3.2854,0.11486 l -1.725,0.19142 0,5.37055 0,5.37054 1.31327,0 1.31326,0 0.3513,0.42329 0.35131,0.42329 -0.23957,0.13849 c -0.13176,0.0762 -0.88082,0.23145 -1.66457,0.34509 l -1.425,0.20661 -0.0369,2.15661 c -0.0203,1.18614 -0.0854,3.57412 -0.14473,5.30662 -0.0593,1.7325 -0.0329,3.51692 0.0587,3.96538 l 0.16645,0.81538 3.35327,0.0846 3.35328,0.0846 0,0.6 0,0.6 -3.268,0.218 c -1.7974,0.1199 -3.33076,0.28076 -3.40746,0.35746 -0.0767,0.0767 -0.17749,0.74369 -0.22397,1.48221 -0.0465,0.73852 -0.16226,1.46853 -0.25727,1.62226 -0.212,0.34303 -0.0589,2.25951 0.21612,2.70441 l 0.20037,0.3242 -0.3049,0.18844 -0.30489,0.18843 0,1.74556 0,1.74556 0.41517,0.34456 0.41517,0.34456 1.15983,0.034 1.15983,0.034 0.375,0.29495 c 0.20625,0.16223 0.375,0.41343 0.375,0.55822 l 0,0.26327 -0.60407,0 c -0.33224,0 -0.83849,0.12685 -1.125,0.28188 -0.28651,0.15503 -0.88489,0.35827 -1.32974,0.45165 l -0.8088,0.16977 -0.0181,5.66554 -0.018,5.66554 0.47639,0.18281 c 0.26202,0.10055 0.7241,0.18281 1.02686,0.18281 l 0.55046,0 0.12621,0.375 0.12622,0.375 0.47178,-0.38932 0.47178,-0.38932 2.05201,0.0893 2.052,0.0893 0.0907,0.63589 0.0907,0.6359 -0.69074,0.18501 c -0.37991,0.10175 -1.83824,0.19114 -3.24074,0.19864 l -2.55,0.0136 -0.525,0.39854 -0.525,0.39853 0,5.53192 0,5.53193 0.36,0.36 0.36,0.36 1.26546,0 c 0.69601,0 1.48245,0.0833 1.74766,0.18504 l 0.48219,0.18503 -0.34439,0.41497 -0.34439,0.41495 -1.42653,0 -1.42653,0 -0.32087,0.38662 -0.32087,0.38663 -0.007,3.27479 -0.007,3.2748 0.4874,0.53858 c 0.55066,0.60847 0.87414,0.67591 1.14442,0.23858 z"
       id="path4191"
       inkscape:connector-curvature="0" />
    <text
       style="font-variant:normal;font-weight:normal;font-size:9.99962521px;font-family:Helvetica;-inkscape-font-specification:Helvetica;writing-mode:lr-tb;fill:#000000;fill-opacity:1;fill-rule:nonzero;stroke:none"
       id="text4154"
       x="412.02457"
       y="165.54224">
      <tspan
         x="412.02457 417.58438 423.14413 425.36411 428.69394 431.46384 437.02365 440.35355 445.9133 451.47311 457.03287 462.03268 464.80258 467.02249 472.58231"
         y="165.54224"
         sodipodi:role="line"
         id="tspan4156">pair production</tspan>
      <tspan
         x="422.0242 427.58401 433.14377 441.47348 443.69339 449.2532 454.81296 457.58286 463.14267"
         y="177.54175"
         sodipodi:role="line"
         id="tspan4158">dominates</tspan>
      <tspan
         x="281.87943 287.43924 292.99905 298.55881 301.3287 306.88852 312.44833 314.66824 320.228 325.22781 327.99771 331.32761 333.54752"
         y="162.75232"
         sodipodi:role="line"
         id="tspan4160">photoelectric</tspan>
      <tspan
         x="273.53976 279.09958 281.86948 284.63937 290.19913 295.19894 297.96884 300.73776 306.29752 311.85733 320.18704 322.40695 327.96671 333.52652 336.29642 341.85623"
         y="174.75189"
         sodipodi:role="line"
         id="tspan4162">effect dominates</tspan>
      <tspan
         x="343.20718 350.42691 355.98666 364.31638 369.87619 372.64603 378.20584 383.76566 386.53555 392.09531 394.8652 397.6351 403.19492 408.19473"
         y="231.87976"
         sodipodi:role="line"
         id="tspan4164">Compton effect</tspan>
      <tspan
         x="354.04678 359.60654 365.16635 373.496 375.71591 381.27573 386.83554 389.60544 395.16519"
         y="243.87927"
         sodipodi:role="line"
         id="tspan4166">dominates</tspan>
      <tspan
         x="309.83841 315.39822 318.16812 422.4642 428.02396 473.3223 478.88205 484.44186 370.11618"
         y="289.07761"
         sodipodi:role="line"
         id="tspan4168">0.1101001</tspan>
      <tspan
         x="250.97063"
         y="280.5379"
         id="tspan4170">0</tspan>
      <tspan
         x="249.88066 255.44048 258.21036 263.77011"
         y="289.07761"
         sodipodi:role="line"
         id="tspan4172">0.01</tspan>
      <tspan
         x="245.41081 250.97063"
         y="252.18896"
         sodipodi:role="line"
         id="tspan4174">20</tspan>
      <tspan
         x="245.41081 250.97063"
         y="226.03998"
         sodipodi:role="line"
         id="tspan4176">40</tspan>
      <tspan
         x="245.41081 250.97063"
         y="199.60095"
         sodipodi:role="line"
         id="tspan4178">60</tspan>
      <tspan
         x="245.8308 251.39061"
         y="171.992"
         sodipodi:role="line"
         id="tspan4180">80</tspan>
      <tspan
         x="239.85106 245.41081 250.97063"
         y="144.78302"
         sodipodi:role="line"
         id="tspan4182">100</tspan>
      <tspan
         x="324.16788 329.72763 335.28745 340.84726 343.61716 349.17691 354.73672 357.50662 363.06644 368.62619 374.186 377.5159 383.07565 388.07547 390.84537 393.61526 401.94498 407.50473 414.17447"
         y="302.16708"
         sodipodi:role="line"
         id="tspan4184">photon energy [MeV]</tspan>
    </text>
    <text
       transform="matrix(0,-1,1,0,0,0)"
       style="font-variant:normal;font-weight:normal;font-size:9.99962521px;font-family:Helvetica;-inkscape-font-specification:Helvetica;writing-mode:lr-tb;fill:#000000;fill-opacity:1;fill-rule:nonzero;stroke:none"
       id="text4186"
       x="-259.84821"
       y="237.75536">
      <tspan
         x="-259.84821"
         y="237.75536"
         id="tspan4188">Z</tspan>
    </text>
    <text
       transform="matrix(0,-1,1,0,0,0)"
       style="font-variant:normal;font-weight:normal;font-size:9.99962521px;font-family:Helvetica;-inkscape-font-specification:Helvetica;writing-mode:lr-tb;fill:#000000;fill-opacity:1;fill-rule:nonzero;stroke:none"
       id="text4190"
       x="-250.97858"
       y="237.75536">
      <tspan
         x="-250.97858 -245.41876 -242.64886 -239.87897 -234.31921 -228.7594 -223.75958 -218.19977 -214.86993 -209.31012 -203.75037 -200.42047 -197.65057 -189.32086 -183.76105 -180.99115 -175.4314 -172.1015 -169.88159 -164.32184"
         y="237.75536"
         sodipodi:role="line"
         id="tspan4192">of absorber material</tspan>
    </text>
  </g>
</svg>
